<?xml version="1.0" standalone="no"?>
<!DOCTYPE svg PUBLIC "-//W3C//DTD SVG 1.1//EN" "http://www.w3.org/Graphics/SVG/1.1/DTD/svg11.dtd" >
<svg xmlns="http://www.w3.org/2000/svg">
<metadata>Generated by IcoMoon</metadata>
<defs>
<font id="bygamelist" horiz-adv-x="1024">
<font-face units-per-em="1024" ascent="960" descent="-64" />
<missing-glyph horiz-adv-x="1024" />
<glyph unicode="&#x20;" horiz-adv-x="512" d="" />
<glyph unicode="&#xe900;" glyph-name="metin2" d="M207.425 429.203c-11.126-15.576-22.936-29.782-34.917-42.619-0.685 8.216-1.027 16.774-1.027 25.503 0 102.697 11.297 91.058 34.232 136.93 17.116 34.232 0 51.349 0 85.581s51.349 34.232 51.349 68.465 34.232 51.349 68.465 51.349c5.477 0 11.81 2.225 18.828 5.991v-40.223c0-17.116-34.232-51.349-34.232-85.581 0-17.116 0-34.232-34.232-51.349s34.232-68.465-17.116-68.465-17.116-34.232-51.349-85.581zM515.517 703.063c0-17.116 17.116-34.232 17.116-51.349s0-68.465 17.116-85.581 34.232 0 34.232 0c17.116 17.116 51.349 34.232 51.349 51.349s34.232 51.349 17.116 68.465c-8.9 17.801 5.306 26.359 21.053 35.259-21.224 22.080-45.016 33.205-74.113 33.205-17.116 0-68.465 85.581-119.814 85.581-9.585 0-19.855-3.081-30.296-7.873 12.666-8.9 23.792-18.143 32.007-26.359 34.232-34.232 34.232-85.581 34.232-102.697zM652.447 275.157c-17.116 51.349 17.116 68.465 17.116 102.697s34.232 68.465 34.232 68.465v119.814c0 0-34.232 0-51.349-34.232 17.116-34.232-51.349-68.465-68.465-85.581s-51.349-68.465-102.697-68.465-17.116 51.349-17.116 51.349v171.162l-34.232 34.232c0 0-119.814-290.976-136.93-325.208s-51.349-51.349-68.465-34.232c0-4.793-5.477-9.756-13.864-14.206 53.745-89.518 147.542-122.723 183.315-122.723 85.581 0 85.581 51.349 136.93 51.349 57.51 0 54.601-24.134 103.040-31.836-33.205 21.224-44.16 54.772-32.863 66.069l51.349 51.349zM993.060 394.971c-17.116 17.116-17.116 34.232 0 51.349s0 34.232-51.349 17.116-68.465-17.116-68.465 34.232 119.814 171.162 136.93 205.395-17.116 51.349-34.232 34.232-68.465-68.465-119.814-102.697c-16.774-11.126-33.548-20.539-49.637-25.674 0-50.151 0-111.255 0-111.255s-13.864-41.421-16.603-74.627c10.099 3.937 21.395 6.162 33.719 6.162 17.116 0 136.93-17.116 136.93-119.814 0-53.060-34.232-102.697-85.581-118.444-15.918-4.964-30.638-12.324-43.818-21.224 52.718 10.441 100.986 27.899 144.803 54.087 85.581 51.349 34.232 154.046 17.116 171.162zM958.827 839.992c0 17.116-17.116 34.232-34.232 34.232s-34.232-17.116-34.232-34.232 0-34.232 34.232-34.232c34.232 0 34.232 16.586 34.232 34.232zM978.049 164.415c-16.414 10.064-35.105 0.548-54.892-9.534-15.319-7.805-32.692-16.654-48.199-16.654-17.818 0-31.733-4.039-45.221-7.942-7.377-2.14-14.857-4.313-23.449-6.008 9.893 11.742 21.772 22.593 34.438 31.254 12.426 8.387 25.64 14.806 39.247 19.050 57.51 17.63 97.682 73.069 97.682 134.807 0 112.573-123.476 136.93-154.046 136.93-4.519 0-8.832-0.668-13.214-1.181 4.758 24.237 12.221 46.796 12.324 47.104 0.582 1.746 0.89 3.594 0.89 5.426v119.814c0 22.166 7.343 31.152 15.85 41.575 8.182 10.030 18.383 22.525 18.383 44.006 0 24.202-12.786 37.005-22.131 46.334-8.404 8.387-12.101 12.512-12.101 22.131 0 41.866-40.001 102.697-102.697 102.697-15.781 0-27.831-5.015-35.807-14.891-15.336-18.982-8.935-48.559-3.303-74.661 2.379-11.143 4.878-22.679 4.878-30.261 0-5.683-8.592-10.971-21.601-18.297-14.378-8.13-44.314-25.041-27.951-57.801 0.822-1.643 1.66-2.636 2.961-3.937 0.89-4.193-6.453-17.75-9.996-24.254-6.093-11.262-11.879-21.909-11.776-31.802-1.54-4.758-15.387-15.165-23.689-21.378-7.959-5.974-16.175-12.135-22.525-18.486-5.409-4.998-8.318-2.122-10.253-0.223-3.646 3.646-12.101 18.092-12.101 73.48 0 12.598-5.494 23.603-10.355 33.325-3.338 6.641-6.761 13.505-6.761 18.023 0 18.691 0 75.551-39.247 114.798-9.157 9.174-21.002 18.948-34.181 28.225-15.61 11.091-95.765 65.367-139.617 43.458-11.502-5.751-18.845-15.319-20.745-26.975-3.937-24.237 17.459-51.503 28.379-63.621l0.017-78.478c-0.411-3.423-6.196-13.299-10.424-20.488-10.612-18.143-23.809-40.685-23.809-65.384 0-15.251 0-23.655-24.767-36.030-30.706-15.353-17.048-46.916-11.211-60.386 0.804-1.849 1.78-4.125 2.636-6.265-0.291 0-0.582 0-0.89 0-44.725 0-47.754-26.427-49.962-45.735-1.575-13.59-3.321-29.012-15.336-47.018-10.047-14.104-21.31-27.848-33.548-40.959-35.225-38.101-71.974-64.597-101.516-85.889-40.172-28.944-69.167-49.842-54.584-79.043 10.372-20.745 27.54-33.616 49.62-37.194 34.849-5.597 74.524 13.898 92.41 28.173 18.417 2.003 52.393 10.612 72.83 21.584 4.211 2.225 7.839 4.604 10.886 7.103 6.059-1.729 12.7-2.071 19.53-0.959 22.679 3.68 45.94 23.21 59.205 49.774 14.48 28.961 98.521 232.010 127.653 302.615l11.074-11.074v-159.232c-6.145-10.663-17.236-34.438-6.983-53.574 4.827-9.020 15.884-19.752 41.233-19.752 50.356 0 84.76 39.436 105.316 62.988 3.629 4.159 6.778 7.805 9.482 10.492 3.184 3.184 10.167 8.199 17.527 13.505 26.941 19.358 66.531 47.806 57.665 82.5 4.638 6.71 10.184 11.023 15.387 13.796v-90.956c-10.835-12.238-34.232-42.448-34.232-75.192 0-9.311-3.834-17.339-8.678-27.506-8.182-17.133-18.177-38.084-10.544-70.211l-44.245-44.245c-7.103-7.137-10.321-17.664-9.003-29.645 2.499-22.765 19.632-46.881 44.417-62.714 1.78-1.198 3.714-2.14 5.563-3.235-42.842-50.287-56.792-83.921-40.942-99.77 17.27-17.27 53.197-13.607 94.909-7.463 6.367 0.941 12.889 1.9 17.014 2.276 1.523-3.629 2.841-11.040 2.876-16.945 0-9.448 7.651-17.116 17.116-17.116h154.046c43.013 0 119.814 40.035 119.814 119.814 0 14.189-1.746 34.13-16.723 43.304zM613.2 211.707l51.349 51.349c4.587 4.587 6.179 11.365 4.125 17.51-8.336 25.007-2.003 38.272 5.991 55.046 5.631 11.81 12.016 25.178 12.016 42.243 0 22.080 21.104 48.182 29.234 56.381 3.184 3.201 4.998 7.565 4.998 12.084v119.814c0 9.448-7.651 17.116-17.116 17.116-1.814 0-45.067-0.496-66.668-43.698-2.413-4.827-2.413-10.492 0-15.319 6.436-12.854-26.034-36.201-43.492-48.73-8.918-6.419-16.62-11.947-21.755-17.099-3.149-3.149-6.829-7.36-11.057-12.187-17.835-20.403-44.742-51.246-79.539-51.246-8.113 0-10.817 1.626-11.023 1.626h-0.017c-1.147 3.081 2.379 14.326 8.164 23.107 1.866 2.807 2.876 6.128 2.876 9.5v171.162c0 4.536-1.797 8.9-5.015 12.101l-34.232 34.232c-4.039 4.057-9.842 5.802-15.456 4.673-5.614-1.113-10.304-4.981-12.478-10.27-1.181-2.91-119.762-290.787-136.416-324.078-9.636-19.256-24.408-29.714-34.061-31.288-4.827-0.736-6.316 0.822-6.983 1.506-4.895 4.895-12.238 6.35-18.657 3.714-5.049-2.088-8.712-6.419-10.030-11.536-0.89-0.719-2.533-1.9-5.357-3.389-19.033-10.201-54.926-17.989-63.638-17.989-4.553 0-8.9-1.797-12.101-5.015-8.815-8.798-42.431-27.369-67.917-23.158-11.228 1.814-19.016 7.771-24.373 17.356 1.695 6.915 25.075 23.774 43.869 37.313 29.149 21.019 69.081 49.791 106.6 90.357 13.197 14.138 25.4 29.063 36.646 44.81 16.877 25.332 19.461 47.737 21.139 62.56 0.582 5.084 1.386 12.050 2.396 13.522 0.017 0.017 2.585 1.883 13.556 1.883 5.905 0 23.86 0 32.709 13.488 8.764 13.316 2.208 28.447-3.047 40.617-2.071 4.775-5.939 13.676-4.895 16.175 40.343 20.163 43.698 43.030 43.698 66.651 0 15.405 10.167 32.76 19.136 48.062 8.421 14.412 15.097 25.777 15.097 37.519v85.581c0 4.519-1.797 8.883-4.998 12.084-12.272 12.324-25.058 31.733-23.843 39.23 0.086 0.513 0.856 1.13 2.259 1.831 13.248 6.658 57.031-7.035 104.546-40.788 11.502-8.096 22.046-16.774 29.731-24.459 29.234-29.217 29.234-75.414 29.234-90.596 0-12.598 5.494-23.603 10.355-33.325 3.321-6.641 6.761-13.505 6.761-18.023 0-35.174 2.499-78.067 22.131-97.682 21.447-21.43 46.676-11.742 58.435 0 4.844 4.844 12.084 10.27 19.085 15.524 18.314 13.744 37.279 27.951 37.262 47.652 0.359 2.91 4.81 11.126 7.754 16.586 9.191 16.928 22.867 42.123 6.795 61.584-0.103 0.257-0.171 0.411-0.205 0.445 1.626 2.841 11.074 8.199 16.004 10.971 16.106 9.089 38.135 21.515 38.135 47.617 0 11.228-2.739 23.98-5.648 37.467-3.218 14.857-8.575 39.693-3.526 45.957 1.095 1.352 4.519 2.157 9.174 2.157 42.465 0 68.465-44.331 68.465-68.465 0-24.202 12.786-37.005 22.131-46.334 8.387-8.387 12.101-12.512 12.101-22.131 0-8.918-3.269-13.299-10.681-22.354-9.927-12.187-23.552-28.858-23.552-63.227v-117.109c-2.876-9.003-11.793-38.443-15.456-66.206-47.549-23.723-70.125-76.664-70.125-107.661 0-25.572 16.705-46.71 41.541-52.564 24.254-5.768 48.165 5.409 59.359 27.797 5.837 11.673 17.921 30.672 33.805 27.009 11.177-2.636 19.358-14.292 19.376-19.153-1.866-13.214-54.926-51.811-108.123-69.543-35.585-11.862-78.803-54.994-95.354-72.624-0.377-0.377-0.719-0.77-1.078-1.147-3.423 1.695-6.778 3.646-10.099 5.888-24.596 15.678-30.621 36.338-30.022 39.538zM874.958 35.53h-138.556c-3.56 18.143-13.334 34.232-32.606 34.232-5.768 0-14.189-1.249-24.87-2.824-12.375-1.814-46.796-6.898-60.934-4.022 5.015 12.153 22.166 38.511 52.033 71.255l3.047 3.252c1.797 1.951 3.646 3.92 5.888 6.179 31.049 33.017 62.337 57.528 81.61 63.946 45.837 15.302 131.504 60.865 131.504 101.841 0 22.696-20.95 46.813-45.735 52.667-13.334 3.184-47.189 5.118-72.282-45.016-6.076-12.187-17.51-10.578-20.865-9.79-7.326 1.746-15.165 7.702-15.165 19.256 0 19.786 17.493 65.196 58.092 80.583 8.473 3.321 17.732 4.998 27.489 4.998 1.198 0 119.814-9.277 119.814-102.697 0-46.83-30.227-88.816-73.566-102.098-16.859-5.272-33.137-13.128-48.37-23.432-27.454-18.759-50.972-45.067-64.545-72.196-2.653-5.306-2.379-11.605 0.753-16.654 3.115-5.049 8.627-8.13 14.566-8.13 30.706 0 50.835 5.837 67.010 10.526 12.7 3.68 22.73 6.59 35.687 6.59 23.723 0 45.923 11.297 63.758 20.385 6.419 3.269 15.524 7.908 20.796 9.5 0.479-2.294 1.027-6.265 1.027-12.769 0-59.256-62.012-85.581-85.581-85.581z" />
<glyph unicode="&#xe901;" glyph-name="sell" d="M855.075 798.7l-341.761-67.288-344.452 67.288c-93.242 0-168.862-84.976-168.862-189.881v-321.574c0-104.905 75.62-189.945 168.862-189.945l344.452 65.366 341.761-65.366c93.307 0 168.925 85.039 168.925 189.945v321.574c0 104.905-75.62 189.881-168.925 189.881v0zM323.113 544.222h-129.514v-62.161h63.764v-64.66h65.75v-70.3h-64.084v-62.674h-132.141v71.71h127.463v58.124h-63.379v64.66h-64.084v68.25h64.084v64.66h132.141v-67.608zM515.365 542.556h-65.43v-61.649h63.764v-67.352h-62.418v-55.945h64.084v-73.119h-132.141v325.419h132.141v-67.352zM707.616 284.489h-131.885v326.765h66.071v-254.99h65.75v-71.775h0.064zM899.869 284.489h-131.885v327.406h66.071v-259.668h65.75v-67.737h0.064z" />
<glyph unicode="&#xe902;" glyph-name="sword" horiz-adv-x="910" d="M760.193 959.998c-65.291-52.29-116.487-82.815-138.433-104.81-7.063-7.078-13.602-19.514-14.972-29.628-1.371-10.111 0-15.879 7.97-21.327l0.064-0.047 56.59-39.39c7.186-4.918 11.679-3.861 20.002 1.625s16.705 16.957 19.504 25.493c10.636 32.482 22.037 87.796 49.274 168.086zM358.235 828.059l48.554-107.681 26.408 7.894 56.719-39.485 44.362 63.723-56.719 39.489-1.763 27.504-117.561 8.556zM818.968 806.329c-18.442-58.422-41.221-92.23-65.572-111.492 20.533-185.824-14.927-301.066-78.161-379.708-63.604-79.102-152.168-120.052-232.568-165.56l-0.712 1.264c-53.952-140.767-172.793-186.481-195.004-207.443 49.068 10.354 127.995 27.806 214.199 58.379l30.007 55.458 31.834-25.856 41.814 52.103 40.802-18.628c97.828 52.354 189.295 125.284 242.742 227.339l-64.388 67.149c0 0 49.937-20.788 80.426-32.805 34.481 83.477 44.42 184.722 15.392 307.607l-42.568 18.288 31.732 22.452c-12.227 41.45-28.707 85.219-49.975 131.452zM594.485 771.046l-17.249-24.783 53.101-36.968 17.249 24.783-53.101 36.968zM555.050 714.399l-234.13-336.325 53.104-36.967 234.128 336.324-53.101 36.968zM716.368 675.695c-21.956-6.291-44.065-5.269-64.548-3.488l-20.856-29.964c9.801-0.079 20.684-0.164 36.86-0.88l15.144-0.669 3.020-14.85c6.77-33.248 5.118-49.973 0.419-72.157l-2.929-13.823-88.887-9.253-18.883 32.257-85.937-123.452c16.077-15.064 26.557-36.724 36.446-59.81 11.911-27.809 21.389-58.162 28.499-81.28l-37.112-11.405c-7.052 22.931-16.275 52.18-27.074 77.399-7.441 17.372-16.386 32.577-23.781 42.028l-31.708-45.55c24.157 11.078 31.335 4.177 32.82-24.576 2.635-51.026-1.531-95.338-10.331-133.916 70.507 38.986 138.696 76.52 187.448 137.149 54.663 67.982 87.799 166.112 71.391 336.241zM207.325 611.277l49.129-106.857 26.408 7.894 56.718-39.484 42.041 60.386-56.213 40.219-1.544 27.815-116.538 10.027zM604.385 604.069l-4.242-6.095 15.312-26.161 35.7 3.717c1.375 8.385 1.306 15.664-0.51 27.412-16.9 0.378-29.599 0.306-46.258 1.128zM626.391 503.975c10.685 0.106 21.397-0.423 31.777-1.219l20.646-1.576-2.91-20.501c-6.808-47.995-20.038-87.669-74.235-122.87l-13.285-8.629-11.119 11.29c-15.235 15.475-28.011 33.643-35.791 52.339-7.775 18.7-11.87 39.957-0.015 58.432 12.083 18.838 32.805 26.625 53.329 30.128 10.262 1.752 20.921 2.498 31.602 2.604zM625.157 464.86c-8.602-0.080-16.758-0.548-23.838-1.755-15.087-2.574-23.857-7.639-27.177-12.825-1.036-1.61-2.102-9.863 3.184-22.558 3.61-8.69 9.68-18.468 16.934-27.706 27.044 20.315 34.706 38.011 39.629 64.811-2.944 0.046-5.865 0.064-8.731 0.034zM298.737 346.209l-17.25-24.782 53.104-36.967 17.25 24.782-53.104 36.967zM259.304 289.567l-246.137-353.568h78.845l220.399 316.601-53.108 36.967z" />
<glyph unicode="&#xe903;" glyph-name="flash" d="M456.468-64h-58.667l58.667 397.333h-200q-42.667 0-21.333 37.333 8 13.333 2.667 8 136 237.333 330.667 581.333h58.667l-58.667-397.333h200q37.333 0 24-37.333z" />
<glyph unicode="&#xe904;" glyph-name="close" d="M1024 856.913l-408.913-408.913 408.913-408.913-103.087-103.087-408.913 408.913-408.913-408.913-103.087 103.087 408.913 408.913-408.913 408.913 103.087 103.087 408.913-408.913 408.913 408.913z" />
<glyph unicode="&#xe905;" glyph-name="menu-right" d="M512 813.714h438.857c40.395 0 73.143-32.748 73.143-73.143s-32.748-73.143-73.143-73.143v0h-438.857c-40.395 0-73.143 32.748-73.143 73.143s32.748 73.143 73.143 73.143v0zM365.715 228.573h585.142c40.395 0 73.143-32.748 73.143-73.143s-32.748-73.143-73.143-73.143v0h-585.142c-40.395 0-73.143 32.748-73.143 73.143s32.748 73.143 73.143 73.143v0zM73.143 521.144h877.713c40.395 0 73.143-32.748 73.143-73.143s-32.748-73.143-73.143-73.143v0h-877.713c-40.395 0-73.143 32.748-73.143 73.143s32.748 73.143 73.143 73.143v0z" />
<glyph unicode="&#xe906;" glyph-name="telegram" d="M679.429 213.143l84 396c7.429 34.857-12.571 48.571-35.429 40l-493.714-190.286c-33.714-13.143-33.143-32-5.714-40.571l126.286-39.429 293.143 184.571c13.714 9.143 26.286 4 16-5.143l-237.143-214.286-9.143-130.286c13.143 0 18.857 5.714 25.714 12.571l61.714 59.429 128-94.286c23.429-13.143 40-6.286 46.286 21.714zM1024 448c0-282.857-229.143-512-512-512s-512 229.143-512 512 229.143 512 512 512 512-229.143 512-512z" />
<glyph unicode="&#xe907;" glyph-name="x" d="M806.46 910.801h157.020l-343.042-392.076 403.562-533.526h-315.986l-247.492 323.581-283.186-323.581h-157.115l366.918 419.369-387.138 506.233h324.008l223.711-295.765zM751.351 79.183h87.007l-561.626 742.569h-93.367z" />
<glyph unicode="&#xe908;" glyph-name="youtube" d="M1013.6 652.7c0 0-10 70.6-40.8 101.6-39 40.8-82.6 41-102.6 43.4-143.2 10.4-358.2 10.4-358.2 10.4h-0.4c0 0-215 0-358.2-10.4-20-2.4-63.6-2.6-102.6-43.4-30.8-31-40.6-101.6-40.6-101.6s-10.2-82.8-10.2-165.8v-77.6c0-82.8 10.2-165.8 10.2-165.8s10-70.6 40.6-101.6c39-40.8 90.2-39.4 113-43.8 82-7.8 348.2-10.2 348.2-10.2s215.2 0.4 358.4 10.6c20 2.4 63.6 2.6 102.6 43.4 30.8 31 40.8 101.6 40.8 101.6s10.2 82.8 10.2 165.8v77.6c-0.2 82.8-10.4 165.8-10.4 165.8zM406 315.1v287.8l276.6-144.4-276.6-143.4z" />
<glyph unicode="&#xe909;" glyph-name="instagram" d="M512.3 867.782c136.827 0 153.030-0.6 206.84-3.001 50.010-2.2 77.015-10.602 95.019-17.603 23.805-9.202 41.008-20.404 58.811-38.207 18.004-18.004 29.006-35.007 38.408-58.811 7.001-18.004 15.403-45.209 17.603-95.019 2.4-54.011 3.001-70.214 3.001-206.84s-0.6-153.030-3.001-206.84c-2.2-50.010-10.602-77.015-17.603-95.019-9.202-23.805-20.404-41.008-38.207-58.811-18.004-18.004-35.007-29.006-58.811-38.408-18.004-7.001-45.209-15.403-95.019-17.603-54.011-2.4-70.214-3.001-206.84-3.001s-153.030 0.6-206.84 3.001c-50.010 2.2-77.015 10.602-95.019 17.603-23.805 9.202-41.008 20.404-58.811 38.207-18.004 18.004-29.006 35.007-38.408 58.811-7.001 18.004-15.403 45.209-17.603 95.019-2.4 54.011-3.001 70.214-3.001 206.84s0.6 153.030 3.001 206.84c2.2 50.010 10.602 77.015 17.603 95.019 9.202 23.805 20.404 41.008 38.207 58.811 18.004 18.004 35.007 29.006 58.811 38.408 18.004 7.001 45.209 15.403 95.019 17.603 53.811 2.4 70.014 3.001 206.84 3.001zM512.3 960c-139.027 0-156.431-0.6-211.041-3.001-54.411-2.4-91.818-11.202-124.224-23.805-33.807-13.203-62.412-30.606-90.818-59.212-28.606-28.406-46.009-57.011-59.212-90.618-12.602-32.606-21.404-69.814-23.805-124.224-2.4-54.811-3.001-72.214-3.001-211.241s0.6-156.431 3.001-211.041c2.4-54.411 11.202-91.818 23.805-124.224 13.203-33.807 30.606-62.412 59.212-90.818 28.406-28.406 57.011-46.009 90.618-59.012 32.606-12.602 69.814-21.404 124.224-23.805 54.611-2.4 72.014-3.001 211.041-3.001s156.431 0.6 211.041 3.001c54.411 2.4 91.818 11.202 124.224 23.805 33.607 13.003 62.212 30.606 90.618 59.012s46.009 57.011 59.012 90.618c12.602 32.606 21.404 69.814 23.805 124.224 2.4 54.611 3.001 72.014 3.001 211.041s-0.6 156.431-3.001 211.041c-2.4 54.411-11.202 91.818-23.805 124.224-12.602 34.007-30.006 62.612-58.611 91.018-28.406 28.406-57.011 46.009-90.618 59.012-32.606 12.602-69.814 21.404-124.224 23.805-54.811 2.601-72.214 3.201-211.241 3.201v0zM512.3 710.951c-145.228 0-263.051-117.823-263.051-263.051s117.823-263.051 263.051-263.051 263.051 117.823 263.051 263.051c0 145.228-117.823 263.051-263.051 263.051zM512.3 277.267c-94.218 0-170.633 76.415-170.633 170.633s76.415 170.633 170.633 170.633c94.218 0 170.633-76.415 170.633-170.633s-76.415-170.633-170.633-170.633zM847.165 721.353c0-33.917-27.495-61.412-61.412-61.412s-61.412 27.495-61.412 61.412c0 33.917 27.495 61.412 61.412 61.412s61.412-27.495 61.412-61.412z" />
<glyph unicode="&#xe90a;" glyph-name="linkedin" d="M365.714 630.857h202.407v-103.751h2.894c28.16 50.507 97.095 103.751 199.819 103.751 213.653 0 253.166-133.001 253.166-305.982v-352.304h-210.983v312.318c0 74.496-1.525 170.315-109.746 170.315-109.883 0-126.651-81.127-126.651-164.905v-317.728h-210.905v658.286zM0 630.857h219.429v-658.286h-219.429v658.286zM219.429 813.714c0-60.593-49.121-109.714-109.714-109.714s-109.714 49.121-109.714 109.714c0 60.593 49.121 109.714 109.714 109.714s109.714-49.121 109.714-109.714z" />
<glyph unicode="&#xe90b;" glyph-name="facebook" d="M1024 446.798q0 105.765-39.662 198.31t-110.573 163.455-163.455 110.573-198.31 39.662-198.31-39.662-163.455-110.573-110.573-163.455-39.662-198.31q0-93.746 30.047-176.676t86.535-150.235 131.005-112.977 161.052-62.498v348.545h-100.958v153.84h100.958v127.399q0 50.479 25.239 91.343t64.901 64.901 90.141 24.038h127.399v-153.84h-100.958q-21.634 0-37.258-15.624t-15.624-34.854v-103.362h153.84v-153.84h-153.84v-355.756q98.554 9.615 182.685 52.883t146.629 111.775 97.352 156.244 34.854 188.695z" />
<glyph unicode="&#xe90c;" glyph-name="discord" d="M867.426 777.953c-66.285 31.013-137.161 53.552-211.259 66.386-9.1-16.453-19.732-38.582-27.062-56.186-78.768 11.846-156.813 11.846-234.132 0-7.329 17.604-18.202 39.733-27.383 56.186-74.178-12.834-145.135-35.456-211.421-66.551-133.698-202.035-169.942-399.054-151.82-593.273 88.676-66.221 174.613-106.448 259.1-132.771 20.86 28.71 39.465 59.229 55.492 91.393-30.525 11.599-59.761 25.912-87.386 42.529 7.329 5.429 14.497 11.106 21.423 16.947 168.491-78.808 351.561-78.808 518.041 0 7.007-5.841 14.175-11.517 21.423-16.947-27.706-16.698-57.022-31.012-87.547-42.612 16.027-32.081 34.552-62.683 55.492-91.392 84.568 26.324 170.586 66.549 259.261 132.853 21.263 225.15-36.323 420.359-152.222 593.437zM341.897 303.958c-50.579 0-92.059 47.219-92.059 104.72s40.593 104.801 92.059 104.801c51.467 0 92.944-47.218 92.059-104.801 0.080-57.501-40.592-104.72-92.059-104.72zM682.102 303.958c-50.579 0-92.059 47.219-92.059 104.72s40.592 104.801 92.059 104.801c51.465 0 92.944-47.218 92.059-104.801 0-57.501-40.593-104.72-92.059-104.72z" />
<glyph unicode="&#xe90d;" glyph-name="clear" horiz-adv-x="1164" d="M178.44 388.465l-24.948-25.562 25.573-24.958 24.948 25.581-25.573 24.94zM497.687 244.135l357.209 357.21-50.521 50.517-357.206-357.207 50.517-50.521zM447.171 601.346l357.206-357.211 50.521 50.521-357.209 357.207-50.517-50.516zM1091.59 448c0-243.312-197.241-440.558-440.558-440.558v-71.442c282.767 0 511.999 229.232 511.999 511.999h-71.442zM210.474 448c0 243.313 197.244 440.558 440.557 440.558v71.442c-282.768 0-511.998-229.23-511.998-511.999h71.442zM651.031 888.558c243.316 0 440.558-197.244 440.558-440.558h71.442c0 282.769-229.232 511.999-511.999 511.999v-71.442zM213.885 392.884c-2.249 18.042-3.411 36.432-3.411 55.116h-71.442c0-21.642 1.345-42.991 3.959-63.953l70.893 8.838zM651.031 7.442c-151.391 0-284.964 76.33-364.324 192.768l-59.035-40.233c92.098-135.126 247.349-223.977 423.359-223.977v71.442zM204.011 363.526l145.153 148.837-51.147 49.879-145.152-148.837 51.146-49.879zM203.386 414.028l-152.521 148.839-49.897-51.129 152.522-148.836 49.897 51.126z" />
<glyph unicode="&#xe90e;" glyph-name="send" d="M0 960l1024-512-1024-512v1024zM0 550.4v-204.8l512 102.4-512 102.4z" />
<glyph unicode="&#xe90f;" glyph-name="chevron-right" d="M344.285-42.576l438.852 438.852c28.599 28.599 28.599 74.898 0 103.423l-438.852 438.852c-28.599 28.599-74.898 28.599-103.423 0s-28.599-74.898 0-103.423l387.141-387.141-387.141-387.141c-28.599-28.599-28.599-74.898 0-103.423s74.898-28.599 103.423 0z" />
<glyph unicode="&#xe910;" glyph-name="chevron-left" d="M783.139 60.872l-387.142 387.142 387.142 387.142c28.599 28.599 28.599 74.898 0 103.424s-74.898 28.599-103.424 0l-438.853-438.853c-28.599-28.599-28.599-74.898 0-103.424l438.853-438.853c28.599-28.599 74.898-28.599 103.424 0s28.599 74.898 0 103.424z" />
<glyph unicode="&#xe911;" glyph-name="document" d="M625.778 959.999h18.963l227.555-265.481v-683.016c0-41.438-33.916-75.502-75.755-75.502h-569.084c-41.965 0-75.755 34.085-75.755 76.13v871.739c0 42.060 34.006 76.13 75.956 76.13h398.117zM606.815 922.074h-379.427c-20.853 0-37.758-17.266-37.758-37.754v-872.64c0-20.851 17.246-37.754 37.925-37.754h568.892c20.945 0 37.925 16.875 37.925 37.676v644.99h-151.783c-41.848 0-75.772 33.624-75.772 76.076v189.405zM644.741 903.111v-170.333c0-21.129 17.092-38.259 37.803-38.259h140.448l-178.249 208.592zM265.482 694.518v-37.926h189.629v37.926h-189.629zM265.482 808.296v-37.926h265.481v37.926h-265.481zM265.482 580.741v-37.926h493.036v37.926h-493.036zM265.482 466.963v-37.926h379.259v37.926h-379.259zM265.482 353.185v-37.926h493.036v37.926h-493.036zM265.482 239.408v-37.926h341.333v37.926h-341.333zM265.482 125.63v-37.926h493.036v37.926h-493.036z" />
<glyph unicode="&#xe912;" glyph-name="chevron-down" d="M21.424 615.715l438.852-438.852c28.599-28.599 74.898-28.599 103.423 0l438.852 438.852c28.599 28.599 28.599 74.898 0 103.423s-74.898 28.599-103.423 0l-387.141-387.141-387.141 387.141c-28.599 28.599-74.898 28.599-103.423 0s-28.599-74.898 0-103.423z" />
<glyph unicode="&#xe913;" glyph-name="chevron-up" d="M1002.576 280.285l-438.852 438.852c-28.599 28.599-74.898 28.599-103.423 0l-438.852-438.852c-28.599-28.599-28.599-74.898 0-103.423s74.898-28.599 103.423 0l387.141 387.141 387.141-387.141c28.599-28.599 74.898-28.599 103.423 0s28.599 74.898 0 103.423z" />
<glyph unicode="&#xe914;" glyph-name="checkmark" d="M0 422.4l102.4 102.4 256-256 563.2 563.2 102.4-102.4-665.6-665.6z" />
<glyph unicode="&#xe915;" glyph-name="spinner" d="M512 960c-278.748 0-505.458-222.762-511.848-499.974 5.92 241.864 189.832 435.974 415.848 435.974 229.75 0 416-200.576 416-448 0-53.020 42.98-96 96-96s96 42.98 96 96c0 282.77-229.23 512-512 512zM512-64c278.748 0 505.458 222.762 511.848 499.974-5.92-241.864-189.832-435.974-415.848-435.974-229.75 0-416 200.576-416 448 0 53.020-42.98 96-96 96s-96-42.98-96-96c0-282.77 229.23-512 512-512z" />
<glyph unicode="&#xe916;" glyph-name="log-out" d="M358.4 38.402h-204.8c-14.131 0-26.88 5.683-36.198 15.001s-15.001 22.067-15.001 36.198v716.799c0 14.131 5.683 26.88 15.001 36.198s22.067 15.001 36.198 15.001h204.8c28.262 0 51.2 22.938 51.2 51.2s-22.938 51.2-51.2 51.2h-204.8c-42.394 0-80.896-17.255-108.595-45.005s-45.005-66.202-45.005-108.595v-716.799c0-42.394 17.255-80.896 45.005-108.595s66.202-45.005 108.595-45.005h204.8c28.262 0 51.2 22.938 51.2 51.2s-22.938 51.2-51.2 51.2zM849.204 499.202h-490.803c-28.262 0-51.2-22.938-51.2-51.2s22.938-51.2 51.2-51.2h490.803l-168.601-168.601c-20.020-20.020-20.020-52.429 0-72.397s52.429-20.020 72.397 0l256 256c4.71 4.71 8.5 10.343 11.111 16.589 7.68 18.534 3.994 40.704-11.111 55.808l-256 256c-20.020 20.020-52.429 20.020-72.397 0s-20.020-52.429 0-72.397z" />
<glyph unicode="&#xe917;" glyph-name="home" d="M408.638 11.718h-254.798v411.042h-153.84l512 461.521 512-461.521h-153.84v-411.042h-254.798v307.681h-206.723v-307.681z" />
<glyph unicode="&#xe918;" glyph-name="eye" d="M512 587.438q56.647 0 98.043-41.396t41.396-98.043-41.396-98.043-98.043-41.396-98.043 41.396-41.396 98.043 41.396 98.043 98.043 41.396zM512 214.877q95.864 0 164.494 68.63t68.63 164.494-68.63 164.494-164.494 68.63-164.494-68.63-68.63-164.494 68.63-164.494 164.494-68.63zM512 796.596q172.119 0 311.557-95.864t200.443-252.732q-61.004-156.868-200.443-252.732t-311.557-95.864-311.557 95.864-200.443 252.732q61.004 156.868 200.443 252.732t311.557 95.864z" />
<glyph unicode="&#xe919;" glyph-name="list-check" d="M950.857 522.286l73.143-73.143-340.571-342.857-221.714 219.429 73.143 73.143 148.571-146.286zM0 302.857v96h388.571v-96h-388.571zM585.143 789.714v-98.286h-585.143v98.286h585.143zM585.143 595.429v-98.286h-585.143v98.286h585.143z" />
<glyph unicode="&#xe91a;" glyph-name="list-add" d="M0 295.362v100.958h408.638v-100.958h-408.638zM819.681 396.319h204.319v-100.958h-204.319v-206.723h-103.362v206.723h-204.319v100.958h204.319v206.723h103.362v-206.723zM615.362 807.362v-103.362h-615.362v103.362h615.362zM615.362 603.042v-103.362h-615.362v103.362h615.362z" />
<glyph unicode="&#xe91b;" glyph-name="list" d="M226.667 733.333h797.333v-114.667h-797.333v114.667zM226.667 162.667v114.667h797.333v-114.667h-797.333zM226.667 392v112h797.333v-112h-797.333zM0 618.667v114.667h114.667v-114.667h-114.667zM0 162.667v114.667h114.667v-114.667h-114.667zM0 392v112h114.667v-112h-114.667z" />
<glyph unicode="&#xe91c;" glyph-name="search" d="M656.888 232.35c-65.556-46.713-145.768-74.188-232.397-74.188-221.421 0-400.919 179.498-400.919 400.919s179.498 400.919 400.919 400.919c221.421 0 400.919-179.498 400.919-400.919 0-110.711-44.875-210.941-117.427-283.492l282.878-282.878c12.974-12.974 12.658-33.776-0.367-46.8-13.115-13.115-33.978-13.189-46.8-0.367l-286.806 286.806zM424.491 205.329c195.371 0 353.752 158.381 353.752 353.752s-158.381 353.752-353.752 353.752c-195.371 0-353.752-158.381-353.752-353.752s158.381-353.752 353.752-353.752v0z" />
<glyph unicode="&#xe91d;" glyph-name="games" d="M742.761 601.84h281.239v-307.681h-281.239l-153.84 153.84zM358.16 217.239l153.84 153.84 153.84-153.84v-281.239h-307.681v281.239zM281.239 601.84l153.84-153.84-153.84-153.84h-281.239v307.681h281.239zM665.84 678.761l-153.84-153.84-153.84 153.84v281.239h307.681v-281.239z" />
</font>
</defs>
</svg>
